Format : Matroska
Format version : Version 2
File size : 5.57 GiB
Duration : 2h 15mn
Overall bit rate : 5 910 Kbps

Video
ID : 1
Format : AVC
Format/Info : Advanced Video Codec
Format profile : High@L4.1
Format settings, CABAC : Yes
Format settings, ReFrames : 5 frames
Muxing mode : Header stripping
Codec ID : V_MPEG4/ISO/AVC
Duration : 2h 15mn
Bit rate : 4 283 Kbps
Width : 1 280 pixels
Height : 536 pixels
Display aspect ratio : 2.40:1
Frame rate : 23.976 fps
Color space : YUV
Chroma subsampling : 4:2:0
Bit depth : 8 bits
Scan type : Progressive
Bits/(Pixel*Frame) : 0.260

Audio #2
ID : 3
Format : DTS
Format/Info : Digital Theater Systems
Muxing mode : Header stripping
Codec ID : A_DTS
Duration : 2h 15mn
Bit rate mode : Constant
Bit rate : 1 510 Kbps
Channel(s) : 6 channels
Channel positions : Front: L C R, Side: L R, LFE
Sampling rate : 48.0 KHz
Bit depth : 24 bits
Compression mode : Lossy
Stream size : 1.42 GiB (26%)
Language : English
Default : No
Forced : No 

Audio #1
ID : 2
Format : MPEG Audio
Format version : Version 1
Format profile : Layer 3
Mode : Joint stereo
Mode extension : MS Stereo
Muxing mode : Header stripping
Codec ID : A_MPEG/L3
Codec ID/Hint : MP3
Duration : 2h 15mn
Bit rate mode : Constant
Bit rate : 128 Kbps
Channel(s) : 2 channels
Sampling rate : 48.0 KHz
Compression mode : Lossy
Delay relative to video : 14ms
Stream size : 124 MiB (2%)
Default : Yes
Forced : Yes 

Text
ID : 4
Format : UTF-8
Codec ID : S_TEXT/UTF8
Codec ID/Info : UTF-8 Plain Text
Language : English
Default : No
Forced : No 


You have to manually select the English audio track (Audio #2) when playing the movie as it's not set as the default audio track. 